<?xml version="1.0" encoding="UTF-8"?>
<svg width="1440px" height="617px" viewBox="0 0 1440 617" version="1.1" xmlns="http://www.w3.org/2000/svg" xmlns:xlink="http://www.w3.org/1999/xlink">
    <!-- Generator: Sketch 55.2 (78181) - https://sketchapp.com -->
    <title>Rectangle 2</title>
    <desc>Created with Sketch.</desc>
    <defs>
        <linearGradient x1="0%" y1="50.2936013%" x2="100%" y2="50%" id="linearGradient-1">
            <stop stop-color="#00CE59" offset="0%"></stop>
            <stop stop-color="#00BF1A" offset="100%"></stop>
        </linearGradient>
        <linearGradient x1="21.2304128%" y1="60.0984676%" x2="91.4782149%" y2="44.5244947%" id="linearGradient-2">
            <stop stop-color="#00B900" offset="0%"></stop>
            <stop stop-color="#00CE59" offset="100%"></stop>
        </linearGradient>
        <path d="M3.97903932e-13,248.911352 L3.97903932e-13,87.6258618 C782.082942,-126.757704 945.712629,119.683684 1440,119.683684 L1440,386.182928 C1344.20644,477.513815 1194.34474,563.999999 1004.60004,563.999999 C689.538313,563.999999 379.602845,355.029451 1.99345623e-10,248.911352 Z" id="path-3"></path>
    </defs>
    <g id="Page-1" stroke="none" stroke-width="1" fill="none" fill-rule="evenodd">
        <g id="2-вариант" transform="translate(0.000000, -691.000000)">
            <g id="1">
                <g id="Rectangle-2" transform="translate(0.000000, 691.000000)">
                    <path d="M14.3001576,219.162457 L1439.9797,115 C1439.99323,249.835566 1440,317.14452 1440,316.926862 C1082.76939,426.276061 786.222772,617 484.990123,617 C258.451721,617 88.7624615,493.916896 0.0621649164,386.466681 C-0.0214008348,386.195079 -0.0214008348,225.331043 0.0663155351,225.61467 C3.07736409,224.217712 7.82197809,222.066975 14.3001576,219.162457 Z" id="Mask-Copy" fill="url(#linearGradient-1)" opacity="0.618257068" transform="translate(720.000000, 366.000000) scale(-1, 1) translate(-720.000000, -366.000000) "></path>
                    <path d="M1440,485.995283 C1350.1016,545.166567 1234.21818,590 1097.65067,590 C782.812144,590 473.098437,381.181348 93.705106,275.273323 C89.2326111,273.100723 57.9975757,213.342948 0,96 L1440,194.983881 L1440,485.995283 L1440,485.995283 Z" id="Path" fill="#00BF1A" opacity="0.618257068"></path>
                    <path d="M1012.44275,601 C695.852343,601 381.504426,391 -9.09494702e-13,285 C-9.09494702e-13,285 -9.09494702e-13,196 -9.09494702e-13,196 L1440,196 L1440,432.386423 C1343.50592,520.222287 1196.69533,601 1012.44275,601 Z" id="Path" fill="#02D335" opacity="0.618257068"></path>
                    <mask id="mask-4" fill="white">
                        <use xlink:href="#path-3"></use>
                    </mask>
                    <use id="Combined-Shape" fill="url(#linearGradient-2)" xlink:href="#path-3"></use>
                    <path d="M222.022904,341.40932 L377.602559,568.46881 L407.461686,606.968547 C429.236543,622.913759 453.356062,625.717418 481.3234,606.968547 L559.113227,552.756434 L592.152103,583.847188 C596.165332,587.625545 602.369054,587.80539 606.594266,584.267897 L693.937793,511.151154 C698.214395,507.571912 701.124347,502.624561 702.174628,497.147308 L730.40855,350.053134 L735.325919,346.26996 C744.96634,338.854553 750.071603,326.971918 748.810945,314.875717 C747.555105,302.813237 744.084682,291.084755 738.579541,280.279586 L684.048453,173.274852 C684.340733,152.562135 650.540644,106.396492 601.633536,48.9503754 C593.417579,39.2997489 583.023975,31.7317951 571.323142,26.858309 L541.826956,14.5694164 L513.133736,-37.0718728 C503.902829,-53.6850811 487.9543,-65.5099086 469.375252,-69.5178893 C462.19994,-71.0642376 454.815856,-71.404659 447.528129,-70.5198844 C421.224539,-67.3324479 397.026328,-54.5425577 379.577858,-34.6038174 L350.211752,-1.04661401 C344.11081,5.92560234 341.072383,15.0607794 341.783812,24.2971194 L343.030016,40.4960412 L247.891286,47.5003728 C228.074063,48.9584042 211.237453,62.5479636 205.631138,81.6083524 C203.989874,87.1883735 202.838419,92.9000671 202.188016,98.6808085 L188.219604,223.06791 C187.220713,231.962223 189.653702,240.901497 195.023945,248.061587 L196.093497,249.485898 L204.576039,305.83528 C206.225333,316.789785 210.712312,327.124465 217.588921,335.810029 L222.022904,341.40932 Z" id="Stroke-1" stroke="#00FF6D" opacity="0.263509115" mask="url(#mask-4)"></path>
                    <path d="M331.587811,717.369552 L376.562585,775.368199 C409.359233,799.389122 445.689706,803.613658 487.814622,775.368199 L604.98473,693.69706 L654.748871,740.537861 C660.793781,746.228379 670.138105,746.499738 676.50252,741.168892 L808.063207,631.019471 C814.504689,625.624398 818.886246,618.174058 820.470927,609.92088 L862.995626,388.319835 L870.403652,382.622895 C884.924281,371.452202 892.613278,353.548907 890.715513,335.326082 C888.82096,317.153034 883.596488,299.485773 875.302196,283.205817 L793.168484,122.003907 C793.608406,90.7991864 742.696294,21.2476953 669.031878,-65.2934607 C656.656269,-79.8312574 641.000513,-91.2315618 623.376349,-98.575927 L578.947463,-117.087773 L535.729165,-194.887626 C521.825069,-219.915308 497.802772,-237.730291 469.817969,-243.767635 C459.00938,-246.097472 447.889314,-246.608077 436.912143,-245.278577 C397.291891,-240.475998 360.842607,-221.206272 334.562902,-191.168878 L290.329894,-140.614148 C281.139704,-130.109811 276.563875,-116.349162 277.63478,-102.432762 L279.511672,-78.0296882 L136.211175,-67.4787867 C106.362324,-65.282221 81.0026009,-44.8098433 72.5573877,-16.0939216 L72.5573877,-16.0939216 C70.0848348,-7.68820416 68.3492311,0.918222848 67.3730543,9.62580748 L46.3306657,197.01791 C44.8262618,210.415676 48.4917412,223.884092 56.5805214,234.671028 L58.1892864,236.816212 L70.9678894,321.706733 C73.4532867,338.209878 80.2094573,353.778519 90.5684906,366.863178 L97.2459891,375.301009 L331.587811,717.369552 Z" id="Stroke-3" stroke="#00FF6D" opacity="0.263509115" mask="url(#mask-4)"></path>
                    <path d="M284.91137,866.268877 L345.055083,943.767899 C388.913991,975.864475 437.498465,981.509876 493.829268,943.767899 L650.520101,834.637933 L717.068475,897.225455 C725.152229,904.829726 737.648226,905.190993 746.159386,898.071622 L922.08991,750.886582 C930.705511,743.677296 936.56547,733.720774 938.683218,722.694901 L995.552295,426.589132 L1005.45815,418.976833 C1024.87619,404.049275 1035.15803,380.12697 1032.61931,355.777566 C1030.08861,331.493993 1023.1023,307.886391 1012.01063,286.134899 L902.172155,70.732993 C902.761847,29.036345 834.677383,-63.897614 736.168374,-179.535204 C719.616842,-198.963347 698.68199,-214.195974 675.115218,-224.007989 L615.699381,-248.745956 L557.904793,-352.702576 C539.312639,-386.144672 507.18811,-409.948161 469.764391,-418.014854 C455.309719,-421.12978 440.437282,-421.813779 425.759266,-420.034739 C372.77701,-413.617029 324.033464,-387.86912 288.889779,-347.731541 L229.737455,-280.179406 C217.448734,-266.14458 211.330082,-247.756887 212.761731,-229.163673 L215.271535,-196.5549 L23.6378644,-182.455848 C-16.2779838,-179.519148 -50.190869,-152.164002 -61.4849877,-113.795828 L-61.4849877,-113.794223 C-64.7917591,-102.562829 -67.1103554,-91.0632956 -68.4182815,-79.4288888 L-96.5579744,170.967759 C-98.569674,188.870552 -93.6657545,206.866471 -82.8488521,221.280226 L-80.6973618,224.146279 L-63.6091625,337.579337 C-60.28793,359.632687 -51.2513496,380.433645 -37.3992231,397.918974 L-28.4686907,409.192113 L284.91137,866.268877 Z" id="Stroke-5" stroke="#00FF6D" opacity="0.263509115" mask="url(#mask-4)"></path>
                    <path d="M239.233444,1016.16791 L314.546086,1113.16579 C369.468855,1153.34127 430.305716,1160.40593 500.84561,1113.16579 L697.05393,976.57848 L780.386525,1054.916 C790.509123,1064.43083 806.155183,1064.88521 816.814695,1055.97249 L1037.11824,871.753271 C1047.90475,862.73137 1055.24471,850.268655 1057.89713,836.46847 L1129.10897,465.857641 L1141.51104,456.326763 C1165.82811,437.647141 1178.70279,407.702586 1175.5231,377.228181 C1172.35467,346.835663 1163.6049,317.286087 1149.71586,290.061429 L1012.17746,20.4608888 C1012.9137,-31.726128 927.658507,-148.045871 804.303312,-292.778421 C783.579074,-317.093721 757.363523,-336.160294 727.850934,-348.441575 L653.451367,-379.404084 L581.0805,-509.51759 C557.798685,-551.374137 517.571929,-581.16937 470.7093,-591.265422 C452.610153,-595.162228 433.985345,-596.018016 415.604881,-593.792646 C349.259025,-585.759798 288.22283,-553.533677 244.21517,-503.297472 L170.145147,-418.746252 C154.75629,-401.180921 147.094816,-378.167768 148.887209,-354.894506 L152.029924,-314.079998 L-87.9352823,-296.435992 C-137.919728,-292.760759 -180.38577,-258.521208 -194.527185,-210.495923 C-198.666568,-196.437235 -201.571369,-182.047793 -203.209439,-167.484945 L-238.446432,145.916531 C-240.965427,168.324371 -234.826281,190.851025 -221.27965,208.89001 L-218.585435,212.475329 L-197.187643,354.449447 C-193.027363,382.053028 -181.713587,408.086326 -164.366763,429.972344 L-153.183197,444.08241 L239.233444,1016.16791 Z" id="Stroke-7" stroke="#00FF6D" opacity="0.263509115" mask="url(#mask-4)"></path>
                    <path d="M192.880268,1164.91856 L283.255275,1281.52832 C349.160978,1329.82403 422.165751,1338.31929 506.813319,1281.52832 L742.264713,1117.32356 L842.263617,1211.49947 C854.410735,1222.93898 873.186328,1223.4838 885.975895,1212.7691 L1150.34074,991.304092 C1163.28449,980.460821 1172.09248,965.47599 1175.27421,948.887248 L1260.72966,503.345659 L1275.61201,491.888467 C1304.79207,469.428899 1320.24138,433.434126 1316.42844,396.794895 C1312.62354,360.256914 1302.12591,324.734636 1285.45755,292.00554 L1120.41061,-32.101702 C1121.29559,-94.8406382 1018.99029,-234.67817 870.963452,-408.675139 C846.094223,-437.905524 814.635067,-460.826337 779.220027,-475.590992 L689.942003,-512.815216 L603.097257,-669.233454 C575.158725,-719.554137 526.88666,-755.370519 470.651431,-767.507525 C448.931812,-772.195508 426.582593,-773.224068 404.525688,-770.548205 C324.911714,-760.8926 251.667628,-722.148036 198.858262,-661.755502 L109.973739,-560.11129 C91.5081277,-538.993671 82.3130662,-511.327018 84.4636666,-483.35019 L88.2364526,-434.281458 L-199.722357,-413.070625 C-259.703068,-408.651032 -310.662179,-367.49096 -327.632488,-309.75661 C-332.60023,-292.856086 -336.08552,-275.555388 -338.051416,-258.047371 L-380.33585,118.717313 C-383.358576,145.655939 -375.989678,172.735991 -359.7357,194.422532 L-356.502572,198.736055 L-330.825463,369.412704 C-325.833629,402.595009 -312.255454,433.89537 -291.440084,460.204003 L-278.019309,477.167204 L192.880268,1164.91856 Z" id="Stroke-9" stroke="#00FF6D" opacity="0.263509115" mask="url(#mask-4)"></path>
                    <path d="M-402.735349,511.461352 L147.202752,1313.89328 L252.746752,1449.94625 C329.714756,1506.29621 414.973575,1516.20668 513.828688,1449.94625 L788.797738,1258.3625 L905.582541,1368.24186 C919.766904,1381.58968 941.695788,1382.22575 956.632108,1369.72442 L1265.36855,1111.3293 C1280.48644,1098.67699 1290.77123,1081.19632 1294.48763,1061.83958 L1394.2859,542.003921 L1411.66609,528.636829 C1445.74359,502.432701 1463.78736,460.43446 1459.33185,417.687712 C1454.8908,375.05822 1442.62971,333.610917 1423.16558,295.424273 L1230.41538,-82.7269508 C1231.44852,-155.927925 1111.97081,-319.081304 939.099285,-522.091812 C910.055725,-556.197012 873.315847,-582.940834 831.958178,-600.166105 L727.693148,-643.595502 L626.27206,-826.097595 C593.643848,-884.808718 537.271127,-926.599755 471.595342,-940.758721 C446.231233,-946.22956 420.131233,-947.427812 394.371865,-944.30529 C301.394233,-933.040759 215.857447,-887.836472 154.184068,-817.374129 L50.3801743,-698.780938 C28.8144154,-674.141284 18.0781315,-641.860768 20.5894772,-609.217242 L24.9935709,-551.9694 L-311.296981,-527.218916 C-381.344725,-522.064506 -440.85703,-474.041275 -460.676254,-406.678967 C-466.476611,-386.960819 -470.548108,-366.775257 -472.842543,-346.348759 L-522.224307,93.2409755 C-525.75433,124.671793 -517.1502,156.266447 -498.166483,181.569476 L-494.392235,186.601812 L-464.403908,385.739687 C-458.574629,424.454783 -442.717643,460.972549 -418.409166,491.670923 L-402.735349,511.461352 Z" id="Stroke-11" stroke="#00FF6D" opacity="0.263509115" mask="url(#mask-4)"></path>
                </g>
            </g>
        </g>
    </g>
</svg>