<svg xmlns="http://www.w3.org/2000/svg" width="104" height="69" viewBox="0 0 104 69"><defs><linearGradient id="if38a" x1="51.99" x2="51.99" y1="32.48" y2="2.48" gradientUnits="userSpaceOnUse"><stop offset="0" stop-color="#00b900"/><stop offset="1" stop-color="#00ce59"/></linearGradient><linearGradient id="if38b" x1="62.65" x2="88.9" y1="48.2" y2="26.87" gradientUnits="userSpaceOnUse"><stop offset="0" stop-color="#00b900"/><stop offset="1" stop-color="#00ce59"/></linearGradient><linearGradient id="if38c" x1="30.85" x2="30.85" y1="44.2" y2="25.41" gradientUnits="userSpaceOnUse"><stop offset="0" stop-color="#00b900"/><stop offset="1" stop-color="#00ce59"/></linearGradient></defs><g><g><g><g><path fill="#f6f7fa" d="M10.88 58.613v8.857c0 .736-.604 1.333-1.35 1.333h-.001c-.746 0-1.351-.597-1.351-1.333v-3.391H2.873v3.39c0 .737-.605 1.334-1.351 1.334A1.342 1.342 0 0 1 .17 67.47v-8.857c0-.736.605-1.333 1.351-1.333h.001c.746 0 1.35.597 1.35 1.333v3.21h5.306v-3.21c0-.736.605-1.333 1.35-1.333h.001c.747 0 1.351.597 1.351 1.333"/></g><g><path fill="#f6f7fa" d="M24.067 58.979l-3.78 8.616a2.03 2.03 0 0 1-1.863 1.207 2.03 2.03 0 0 1-1.865-1.21l-3.767-8.615c-.35-.802.246-1.697 1.132-1.697h.23c.495 0 .94.29 1.134.74l3.235 7.49 3.282-7.496c.195-.446.64-.734 1.131-.734.887 0 1.483.896 1.131 1.699"/></g><g><path fill="#f6f7fa" d="M30.034 64.276l-1.568 1.613v1.69c0 .676-.555 1.223-1.24 1.223h-.206c-.684 0-1.24-.547-1.24-1.224v-9.21c0-.601.494-1.088 1.102-1.088h.482c.609 0 1.102.487 1.102 1.087v4.296l4.846-5.044a1.11 1.11 0 0 1 .8-.339c.963 0 1.462 1.132.807 1.828l-3.116 3.308 3.53 4.403c.644.803.065 1.983-.973 1.983-.372 0-.725-.165-.961-.45z"/></g><g><path fill="#f6f7fa" d="M47.162 67.7v.066c0 .573-.47 1.037-1.05 1.037h-6.734a1.25 1.25 0 0 1-1.258-1.241v-9.04a1.25 1.25 0 0 1 1.258-1.242h6.517c.58 0 1.05.464 1.05 1.037v.066c0 .572-.47 1.037-1.05 1.037h-5.089v2.502h4.371c.58 0 1.05.465 1.05 1.037 0 .573-.47 1.038-1.05 1.038h-4.37v2.666h5.304c.58 0 1.051.464 1.051 1.037"/></g><g><path fill="#f6f7fa" d="M50.473 68.628a8.179 8.179 0 0 1-1.1-.396c-.564-.254-.824-.902-.568-1.46l.003-.008c.259-.567.935-.791 1.51-.533.245.11.505.21.781.298.69.22 1.379.33 2.069.33.767 0 1.334-.113 1.701-.339.368-.224.551-.523.551-.897a.853.853 0 0 0-.325-.683 2.479 2.479 0 0 0-.834-.436c-.34-.11-.798-.23-1.377-.362-.89-.209-1.618-.417-2.185-.626a3.545 3.545 0 0 1-1.46-1.004c-.406-.461-.609-1.075-.609-1.844 0-.67.184-1.275.55-1.819.368-.543.92-.973 1.66-1.291.74-.319 1.644-.478 2.712-.478.744 0 1.473.088 2.185.263.307.076.598.167.872.27.572.219.838.871.607 1.432l-.001.004c-.23.556-.87.826-1.436.606a6.165 6.165 0 0 0-2.244-.435c-.757 0-1.315.121-1.676.362-.362.242-.543.56-.543.954 0 .396.209.69.626.881.417.193 1.053.382 1.91.569.89.208 1.618.417 2.185.625a3.623 3.623 0 0 1 1.46.988c.406.45.609 1.059.609 1.827 0 .659-.186 1.26-.559 1.802-.373.544-.932.974-1.676 1.293-.746.318-1.652.477-2.72.477a9.673 9.673 0 0 1-2.678-.37"/></g><g><path fill="#f6f7fa" d="M77.083 58.87l-2.842 8.574a1.998 1.998 0 0 1-1.901 1.359c-.867 0-1.634-.55-1.902-1.364L68.318 61l-2.196 6.457a1.997 1.997 0 0 1-1.895 1.346c-.864 0-1.63-.547-1.9-1.357l-2.855-8.574c-.26-.785.331-1.592 1.168-1.592h.208c.535 0 1.008.34 1.17.842l2.362 7.257 2.358-6.935a1.727 1.727 0 0 1 1.639-1.164c.75 0 1.414.478 1.645 1.182l2.283 6.983 2.441-7.33a1.228 1.228 0 0 1 1.168-.835c.837 0 1.429.806 1.169 1.59"/></g><g><path fill="#f6f7fa" d="M80.462 57.28c.746 0 1.351.597 1.351 1.334v8.855c0 .737-.605 1.334-1.351 1.334a1.343 1.343 0 0 1-1.352-1.334v-8.855c0-.737.605-1.334 1.352-1.334"/></g><g><path fill="#f6f7fa" d="M85.743 68.628a8.182 8.182 0 0 1-1.1-.397c-.565-.253-.824-.9-.569-1.457l.005-.012c.258-.566.934-.79 1.506-.531.247.11.508.21.784.298.69.22 1.379.33 2.069.33.767 0 1.334-.113 1.701-.339.368-.224.551-.523.551-.897a.853.853 0 0 0-.325-.683 2.479 2.479 0 0 0-.834-.436c-.34-.11-.798-.23-1.377-.362-.89-.209-1.618-.417-2.185-.626a3.545 3.545 0 0 1-1.46-1.004c-.406-.461-.609-1.075-.609-1.844 0-.67.184-1.275.55-1.819.368-.543.92-.973 1.66-1.291.74-.319 1.644-.478 2.712-.478.744 0 1.473.088 2.185.263.308.076.6.167.874.272.571.217.837.868.606 1.428l-.003.007a1.113 1.113 0 0 1-1.433.606 6.163 6.163 0 0 0-2.246-.436c-.757 0-1.315.121-1.676.362-.362.242-.543.56-.543.954 0 .396.209.69.626.881.417.193 1.053.382 1.91.569.89.208 1.618.417 2.185.625a3.623 3.623 0 0 1 1.46.988c.406.45.609 1.059.609 1.827 0 .659-.186 1.26-.559 1.802-.373.544-.932.974-1.676 1.293-.746.318-1.652.477-2.72.477a9.673 9.673 0 0 1-2.678-.37"/></g><g><path fill="#f6f7fa" d="M96.383 68.628a8.182 8.182 0 0 1-1.1-.397c-.565-.253-.824-.9-.569-1.457l.005-.012c.258-.566.934-.79 1.506-.531.247.11.508.21.784.298.69.22 1.379.33 2.069.33.767 0 1.334-.113 1.701-.339.368-.224.551-.523.551-.897a.853.853 0 0 0-.325-.683 2.479 2.479 0 0 0-.834-.436c-.34-.11-.798-.23-1.377-.362-.89-.209-1.618-.417-2.185-.626a3.545 3.545 0 0 1-1.46-1.004c-.406-.461-.609-1.075-.609-1.844 0-.67.184-1.275.55-1.819.368-.543.92-.973 1.66-1.291.74-.319 1.644-.478 2.712-.478.744 0 1.473.088 2.185.263.308.076.6.167.874.272.571.217.837.868.606 1.428l-.003.007a1.113 1.113 0 0 1-1.433.606 6.163 6.163 0 0 0-2.246-.436c-.757 0-1.315.121-1.676.362-.362.242-.543.56-.543.954 0 .396.209.69.626.881.417.193 1.053.382 1.91.569.89.208 1.618.417 2.185.625a3.623 3.623 0 0 1 1.46.988c.406.45.609 1.059.609 1.827 0 .659-.186 1.26-.559 1.802-.373.544-.932.974-1.676 1.293-.746.318-1.652.477-2.72.477a9.673 9.673 0 0 1-2.678-.37"/></g></g><g><g><path fill="url(#if38a)" d="M51.938 0a2.14 2.14 0 0 0-.873.2C43.578 3.69 37.67 12.249 35.27 23.077c3.075 1.42 5.956 3.085 8.5 4.74a34.809 34.809 0 0 1 6.006 4.954c.058-7.2.783-14.398 2.19-21.523a115.834 115.834 0 0 1 2.195 21.856 34.793 34.793 0 0 1 6.326-5.286c2.463-1.603 5.241-3.215 8.206-4.606C66.313 12.322 60.387 3.705 52.87.2a2.142 2.142 0 0 0-.874-.2z"/></g><g><path fill="url(#if38b)" d="M54.71 39.47c5.199.125 10.229.563 15.012 1.276 4.696-2.99 9.651-5.626 14.373-8.815-2.235 3.878-5.096 7.154-8.4 9.872 4.018.829 7.816 1.86 11.346 3.066 3.732-5.42 5.9-12.03 4.742-18.474a2.094 2.094 0 0 0-1.38-1.616c-1.902-.638-3.882-.919-5.893-.919-7.613 0-15.684 4.022-21.712 7.945a30.91 30.91 0 0 0-8.088 7.665z"/></g><g><path fill="url(#if38c)" d="M13.863 24.779a2.093 2.093 0 0 0-1.38 1.614c-1.14 6.337.938 12.832 4.556 18.2 3.534-1.165 7.33-2.156 11.333-2.95-3.22-2.686-6.011-5.91-8.202-9.712 4.66 3.146 9.546 5.755 14.187 8.697 4.842-.686 9.93-1.091 15.185-1.176a30.906 30.906 0 0 0-8.074-7.647c-6.029-3.923-14.1-7.945-21.712-7.945-2.012 0-3.991.281-5.893.919"/></g></g></g></g></svg>