<svg xmlns="http://www.w3.org/2000/svg" width="76" height="52" viewBox="0 0 76 52"><g><g><g><g><path fill="#a4a8b7" d="M7.827 43.236v6.812c0 .567-.442 1.026-.988 1.026-.545 0-.987-.46-.987-1.026V47.44H1.975v2.608c0 .567-.442 1.026-.987 1.026-.546 0-.988-.46-.988-1.026v-6.812c0-.567.442-1.026.987-1.026h.001c.545 0 .987.46.987 1.026v2.469h3.877v-2.47c0-.566.442-1.025.987-1.025.546 0 .988.46.988 1.026"/></g><g><path fill="#a4a8b7" d="M17.464 43.517l-2.762 6.627c-.235.565-.77.93-1.362.93a1.483 1.483 0 0 1-1.362-.931l-2.753-6.627c-.257-.618.179-1.306.826-1.306h.17a.9.9 0 0 1 .828.569l2.363 5.762 2.399-5.767a.9.9 0 0 1 .827-.564c.648 0 1.083.69.826 1.307"/></g><g><path fill="#a4a8b7" d="M21.819 47.592l-1.146 1.24v1.3c0 .52-.406.941-.906.941h-.15c-.5 0-.907-.421-.907-.941v-7.085c0-.462.36-.837.805-.837h.353c.444 0 .805.375.805.837v3.304l3.54-3.88a.793.793 0 0 1 .586-.261c.703 0 1.068.87.59 1.406L23.11 46.16l2.58 3.388c.47.617.047 1.525-.71 1.525a.895.895 0 0 1-.703-.346z"/></g><g><path fill="#a4a8b7" d="M34.338 50.225v.051c0 .44-.344.798-.768.798h-4.92c-.508 0-.92-.428-.92-.955v-6.954c0-.528.412-.955.92-.955h4.762c.423 0 .767.357.767.798v.05c0 .44-.344.798-.767.798h-3.719v1.925h3.194c.424 0 .768.357.768.798 0 .44-.344.798-.768.798h-3.194v2.05h3.877c.424 0 .768.358.768.798"/></g><g><path fill="#a4a8b7" d="M36.767 50.943a5.785 5.785 0 0 1-.803-.304.864.864 0 0 1-.416-1.123l.002-.007a.81.81 0 0 1 1.103-.41c.18.086.37.162.571.23a4.737 4.737 0 0 0 1.512.253c.56 0 .975-.087 1.243-.26.269-.173.403-.403.403-.69a.67.67 0 0 0-.238-.526 1.783 1.783 0 0 0-.61-.335 12.024 12.024 0 0 0-1.005-.279c-.65-.16-1.183-.32-1.597-.481a2.591 2.591 0 0 1-1.067-.772c-.297-.355-.445-.828-.445-1.419 0-.515.134-.98.402-1.399.269-.418.673-.749 1.214-.994.54-.244 1.2-.367 1.98-.367.545 0 1.077.068 1.598.202a5.3 5.3 0 0 1 .637.209c.418.167.612.669.444 1.1l-.002.004a.802.802 0 0 1-1.049.466 4.308 4.308 0 0 0-1.64-.335c-.553 0-.96.093-1.225.279-.264.186-.396.43-.396.734s.152.53.457.677c.305.148.77.294 1.396.437.65.16 1.183.321 1.597.482.414.16.77.413 1.067.76.297.346.445.814.445 1.405 0 .507-.136.969-.409 1.386-.272.418-.68.75-1.225.994-.544.246-1.207.368-1.987.368a6.74 6.74 0 0 1-1.957-.285"/></g><g><path fill="#a4a8b7" d="M56.205 43.434l-2.077 6.594a1.468 1.468 0 0 1-1.39 1.046 1.467 1.467 0 0 1-1.389-1.049l-1.55-4.953-1.604 4.967a1.466 1.466 0 0 1-1.385 1.035c-.631 0-1.191-.421-1.388-1.044l-2.086-6.595c-.191-.604.241-1.225.853-1.225h.152c.39 0 .736.262.855.648l1.726 5.582 1.723-5.335a1.268 1.268 0 0 1 1.197-.895 1.27 1.27 0 0 1 1.203.91l1.668 5.37 1.784-5.638a.903.903 0 0 1 .854-.642c.611 0 1.044.62.854 1.224"/></g><g><path fill="#a4a8b7" d="M58.678 42.21c.545 0 .987.459.987 1.026v6.812c0 .566-.442 1.026-.987 1.026-.546 0-.988-.46-.988-1.026v-6.812c0-.567.442-1.026.988-1.026"/></g><g><path fill="#a4a8b7" d="M62.537 50.943a5.788 5.788 0 0 1-.805-.305.862.862 0 0 1-.415-1.121l.004-.009a.808.808 0 0 1 1.1-.41c.18.086.371.163.573.23a4.737 4.737 0 0 0 1.512.254c.56 0 .975-.087 1.243-.26.269-.173.403-.403.403-.69a.67.67 0 0 0-.238-.526 1.783 1.783 0 0 0-.61-.335 12.024 12.024 0 0 0-1.005-.279c-.65-.16-1.183-.32-1.597-.481a2.591 2.591 0 0 1-1.067-.772c-.297-.355-.445-.828-.445-1.419 0-.515.134-.98.402-1.399.269-.418.673-.749 1.214-.994.54-.244 1.2-.367 1.98-.367.545 0 1.077.068 1.598.202.225.059.437.129.638.21.418.167.612.667.443 1.098l-.002.006a.8.8 0 0 1-1.047.465 4.307 4.307 0 0 0-1.641-.335c-.554 0-.962.093-1.226.279-.264.186-.396.43-.396.734s.152.53.457.677c.305.148.77.294 1.396.437.65.16 1.183.321 1.597.482.414.16.77.413 1.067.76.297.346.445.814.445 1.405 0 .507-.136.969-.409 1.386-.272.418-.68.75-1.225.994-.544.246-1.207.368-1.987.368a6.74 6.74 0 0 1-1.957-.285"/></g><g><path fill="#a4a8b7" d="M70.307 50.943a5.788 5.788 0 0 1-.805-.305.862.862 0 0 1-.415-1.121l.004-.009a.808.808 0 0 1 1.1-.41c.18.086.371.163.573.23a4.737 4.737 0 0 0 1.512.254c.56 0 .975-.087 1.243-.26.269-.173.403-.403.403-.69a.67.67 0 0 0-.238-.526 1.783 1.783 0 0 0-.61-.335 12.024 12.024 0 0 0-1.005-.279c-.65-.16-1.183-.32-1.597-.481a2.591 2.591 0 0 1-1.067-.772c-.297-.355-.445-.828-.445-1.419 0-.515.134-.98.402-1.399.269-.418.673-.749 1.214-.994.54-.244 1.2-.367 1.98-.367.545 0 1.077.068 1.598.202.225.059.437.129.638.21.418.167.612.667.443 1.098l-.002.006a.8.8 0 0 1-1.047.465 4.307 4.307 0 0 0-1.641-.335c-.554 0-.962.093-1.226.279-.264.186-.396.43-.396.734s.152.53.457.677c.305.148.77.294 1.396.437.65.16 1.183.321 1.597.482.414.16.77.413 1.067.76.297.346.445.814.445 1.405 0 .507-.136.969-.409 1.386-.272.418-.68.75-1.225.994-.544.246-1.207.368-1.987.368a6.74 6.74 0 0 1-1.957-.285"/></g></g><g><g><path fill="#a4a8b7" d="M38.333 0c-.22.003-.44.052-.644.147-5.522 2.559-9.879 8.836-11.649 16.776 2.268 1.042 4.393 2.262 6.27 3.477a25.641 25.641 0 0 1 4.428 3.632 84.495 84.495 0 0 1 1.616-15.784 84.482 84.482 0 0 1 1.618 16.028 25.626 25.626 0 0 1 4.665-3.876c1.817-1.176 3.866-2.358 6.053-3.378C48.934 9.035 44.564 2.717 39.02.147A1.587 1.587 0 0 0 38.374 0z"/></g><g><path fill="#a4a8b7" d="M40.37 28.948a90.35 90.35 0 0 1 11.071.935c3.464-2.193 7.118-4.126 10.6-6.464-1.648 2.844-3.758 5.246-6.195 7.239a69.482 69.482 0 0 1 8.368 2.249c2.753-3.975 4.351-8.822 3.497-13.548a1.538 1.538 0 0 0-1.018-1.185c-1.402-.468-2.863-.674-4.346-.674-5.614 0-11.566 2.95-16.012 5.826a22.743 22.743 0 0 0-5.965 5.622z"/></g><g><path fill="#a4a8b7" d="M10.249 18.174c-.53.177-.92.636-1.019 1.183-.84 4.647.692 9.41 3.36 13.348a70.834 70.834 0 0 1 8.36-2.164 26.463 26.463 0 0 1-6.05-7.122c3.437 2.307 7.04 4.22 10.463 6.377 3.571-.503 7.323-.8 11.199-.862a22.74 22.74 0 0 0-5.955-5.608C26.161 20.45 20.208 17.5 14.594 17.5c-1.483 0-2.943.206-4.345.674"/></g></g></g></g></svg>